<?xml version="1.0" encoding="UTF-8" standalone="no"?>
<!-- Created with Inkscape (http://www.inkscape.org/) -->

<svg
   width="45.116287mm"
   height="48.275906mm"
   viewBox="0 0 45.116287 48.275905"
   version="1.1"
   id="svg5"
   inkscape:version="1.3 (0e150ed, 2023-07-21)"
   sodipodi:docname="praeterium.svg"
   xmlns:inkscape="http://www.inkscape.org/namespaces/inkscape"
   xmlns:sodipodi="http://sodipodi.sourceforge.net/DTD/sodipodi-0.dtd"
   xmlns="http://www.w3.org/2000/svg"
   xmlns:svg="http://www.w3.org/2000/svg">
  <sodipodi:namedview
     id="namedview7"
     pagecolor="#ffffff"
     bordercolor="#000000"
     borderopacity="0.25"
     inkscape:showpageshadow="2"
     inkscape:pageopacity="0.0"
     inkscape:pagecheckerboard="0"
     inkscape:deskcolor="#d1d1d1"
     inkscape:document-units="mm"
     showgrid="false"
     inkscape:zoom="1.5494239"
     inkscape:cx="273.65009"
     inkscape:cy="217.17749"
     inkscape:window-width="1440"
     inkscape:window-height="766"
     inkscape:window-x="0"
     inkscape:window-y="25"
     inkscape:window-maximized="1"
     inkscape:current-layer="layer1">
    <inkscape:page
       x="0"
       y="0"
       width="45.116287"
       height="48.275906"
       id="page1"
       margin="0"
       bleed="0"
       inkscape:export-filename="../Downloads/Page 2.svg"
       inkscape:export-xdpi="200"
       inkscape:export-ydpi="200" />
  </sodipodi:namedview>
  <defs
     id="defs2" />
  <g
     inkscape:label="Vrstva 1"
     inkscape:groupmode="layer"
     id="layer1"
     transform="translate(-27.194343,-28.804151)">
    <g
       id="g4677">
      <g
         id="g3238">
        <path
           style="fill:#5b5b5b;fill-opacity:1;stroke-width:0.197794"
           d="m 44.515778,49.957359 -13.303963,-14.228868 -2.542579,9.247093 9.356923,9.952547 -3.465802,12.245536 2.468634,4.644364 7.486787,-14.439034 z"
           id="path3233"
           sodipodi:nodetypes="cccccccc" />
        <path
           style="fill:#282828;fill-opacity:1;stroke-width:0.225459"
           d="M 46.131916,49.054235 30.967159,32.835209 28.068956,43.375671 38.734609,54.720257 34.784054,68.678547 37.59797,73.972507 46.131916,57.51392 Z"
           id="path3231"
           sodipodi:nodetypes="cccccccc" />
        <path
           style="fill:#000000;stroke-width:0.264583"
           d="M 48.391791,47.837685 30.595475,28.804151 27.194343,41.173713 39.71082,54.486939 l -4.6361,16.38049 3.302219,6.212628 10.014852,-19.314667 z"
           id="path2343"
           sodipodi:nodetypes="cccccccc" />
      </g>
      <path
         style="fill:#282828;fill-opacity:1;stroke-width:0.264583"
         d="m 30.595474,28.80415 -3.401131,12.369562 21.197448,6.663973 z"
         id="path3302" />
      <path
         style="fill:#4d4d4d;fill-opacity:1;stroke-width:0.264583"
         d="m 27.194343,41.173712 21.197448,6.663973 -8.680971,6.649254 z"
         id="path3304" />
      <path
         style="fill:#686868;fill-opacity:1;stroke-width:0.264583"
         d="M 48.391791,57.765388 39.71082,54.486939 48.391791,47.837685 Z"
         id="path3522" />
      <path
         style="fill:#4d4d4d;fill-opacity:1;stroke-width:0.264583"
         d="M 48.391791,57.765388 39.71082,54.486939 38.376939,77.080056 Z"
         id="path4118" />
      <path
         style="fill:#171717;fill-opacity:1;stroke-width:0.264583"
         d="m 39.71082,54.486939 -4.636101,16.380489 3.30222,6.212628 z"
         id="path4666" />
    </g>
    <g
       id="g4697"
       transform="matrix(-1,0,0,1,99.504974,0)">
      <g
         id="g4685">
        <path
           style="fill:#5b5b5b;fill-opacity:1;stroke-width:0.197794"
           d="m 44.515778,49.957359 -13.303963,-14.228868 -2.542579,9.247093 9.356923,9.952547 -3.465802,12.245536 2.468634,4.644364 7.486787,-14.439034 z"
           id="path4679"
           sodipodi:nodetypes="cccccccc" />
        <path
           style="fill:#282828;fill-opacity:1;stroke-width:0.225459"
           d="M 46.131916,49.054235 30.967159,32.835209 28.068956,43.375671 38.734609,54.720257 34.784054,68.678547 37.59797,73.972507 46.131916,57.51392 Z"
           id="path4681"
           sodipodi:nodetypes="cccccccc" />
        <path
           style="fill:#000000;stroke-width:0.264583"
           d="M 48.391791,47.837685 30.595475,28.804151 27.194343,41.173713 39.71082,54.486939 l -4.6361,16.38049 3.302219,6.212628 10.014852,-19.314667 z"
           id="path4683"
           sodipodi:nodetypes="cccccccc" />
      </g>
      <path
         style="fill:#282828;fill-opacity:1;stroke-width:0.264583"
         d="m 30.595474,28.80415 -3.401131,12.369562 21.197448,6.663973 z"
         id="path4687" />
      <path
         style="fill:#4d4d4d;fill-opacity:1;stroke-width:0.264583"
         d="m 27.194343,41.173712 21.197448,6.663973 -8.680971,6.649254 z"
         id="path4689" />
      <path
         style="fill:#686868;fill-opacity:1;stroke-width:0.264583"
         d="M 48.391791,57.765388 39.71082,54.486939 48.391791,47.837685 Z"
         id="path4691" />
      <path
         style="fill:#4d4d4d;fill-opacity:1;stroke-width:0.264583"
         d="M 48.391791,57.765388 39.71082,54.486939 38.376939,77.080056 Z"
         id="path4693" />
      <path
         style="fill:#171717;fill-opacity:1;stroke-width:0.264583"
         d="m 39.71082,54.486939 -4.636101,16.380489 3.30222,6.212628 z"
         id="path4695" />
    </g>
  </g>
</svg>
